<?xml version="1.0" encoding="UTF-8" standalone="no"?>
<!-- Created with Inkscape (http://www.inkscape.org/) -->

<svg
   version="1.1"
   id="svg1"
   width="247"
   height="337"
   viewBox="0 0 247 337"
   sodipodi:docname="astronautGray.svg"
   inkscape:version="1.3.2 (091e20e, 2023-11-25, custom)"
   xmlns:inkscape="http://www.inkscape.org/namespaces/inkscape"
   xmlns:sodipodi="http://sodipodi.sourceforge.net/DTD/sodipodi-0.dtd"
   xmlns="http://www.w3.org/2000/svg"
   xmlns:svg="http://www.w3.org/2000/svg">
  <defs
     id="defs1" />
  <sodipodi:namedview
     id="namedview1"
     pagecolor="#ffffff"
     bordercolor="#000000"
     borderopacity="0.25"
     inkscape:showpageshadow="2"
     inkscape:pageopacity="0.0"
     inkscape:pagecheckerboard="0"
     inkscape:deskcolor="#d1d1d1"
     inkscape:zoom="3.151556"
     inkscape:cx="116.45041"
     inkscape:cy="117.56098"
     inkscape:window-width="1920"
     inkscape:window-height="986"
     inkscape:window-x="-11"
     inkscape:window-y="-11"
     inkscape:window-maximized="1"
     inkscape:current-layer="g1" />
  <g
     inkscape:groupmode="layer"
     inkscape:label="Image"
     id="g1">
    <path
       style="fill:#000000;fill-opacity:0"
       d="m 113.27738,28.557322 c -5.07686,3.490339 -15.230575,5.394161 -15.230575,5.394161 l -9.201804,7.615285 -2.538428,11.105626 0.317303,10.788321 v 1.903822 l -13.961357,0.95191 -0.317304,13.32675 0.951911,5.394161 -2.221125,4.124947 -21.893947,27.922715 -1.586518,3.49034 -11.105625,9.51911 -7.615286,12.37484 -3.807643,5.39416 -0.317303,4.44225 -8.567197,15.86518 -3.173035,5.71146 -1.269215,6.02877 c 0,0 -2.5384283,6.02877 1.903822,7.93259 4.44225,1.90382 1.269214,1.26921 1.269214,1.26921 l 5.394161,5.39416 c 0,0 -0.317304,-1.26921 2.855732,-1.26921 3.173036,0 4.124947,-2.53843 4.124947,-2.53843 l 3.807642,-2.85573 -0.95191,-3.17304 c 0,0 0.634607,0 0,-2.22112 -0.634607,-2.22113 -1.903822,-6.34608 -1.903822,-6.34608 l 10.471018,-6.34607 4.759554,3.49034 4.124946,-0.6346 v -1.58652 l -2.855732,-6.02877 c 0,0 3.807643,-3.17304 4.759554,-5.07686 0.951911,-1.90382 12.374839,-12.69214 12.374839,-12.69214 l 7.297982,-8.8845 c 0,0 4.442251,-4.12495 4.759554,-2.85573 0.317304,1.26921 -1.903821,13.00944 -1.903821,13.00944 l -0.317304,4.44225 -0.634607,24.74968 12.374839,0.63461 3.807643,5.07686 -7.297982,18.72091 2.855732,33.31687 0.317304,16.81709 2.855732,9.20181 0.317304,8.8845 0.634607,38.39373 0.634607,1.58652 2.221125,13.00944 2.538429,2.22113 -1.903822,8.5672 -0.951911,1.90382 2.221125,1.90382 h 25.066987 l -0.95191,-10.78832 3.49033,-11.42293 c 0,0 -0.3173,-17.4517 -0.6346,-19.03822 -0.31731,-1.58651 1.90382,-11.42293 1.90382,-11.42293 l -1.58652,-20.94203 1.90382,-15.86518 1.26922,-7.61529 c 0,0 0.3173,0.63461 0.6346,-2.85573 0.31731,-3.49034 -0.95191,-5.71146 -1.58651,-10.15371 -0.63461,-4.44225 -0.63461,-15.86518 0.6346,-19.67282 1.26922,-3.80765 1.58652,-5.07686 1.58652,-7.93259 0,-2.85574 1.90382,-5.07686 1.90382,-5.07686 l 2.53843,0.95191 v 3.49034 l 1.58652,5.71146 0.3173,13.32675 -0.6346,13.64406 1.26921,6.98068 2.22112,7.93259 -0.3173,5.07685 -0.63461,9.83641 0.31731,8.8845 v 8.5672 l -1.26922,7.29798 1.58652,6.98068 2.85573,8.8845 c 0,0 -5.39416,-4.44225 -2.85573,-3.49034 2.53843,0.95191 -0.63461,10.78832 -0.63461,10.78832 l 2.22113,9.83641 1.58652,6.02877 0.3173,3.49034 v 5.71147 l -0.63461,1.26921 c 0,0 0.31731,1.90382 1.58652,1.58652 1.26922,-0.31731 24.43238,-1.26922 24.43238,-1.26922 0,0 -2.85574,-9.5191 -1.58652,-10.15371 1.26921,-0.63461 2.85573,-8.24989 2.85573,-9.51911 0,-1.26921 -1.58652,-8.24989 0.3173,-8.8845 1.90383,-0.63461 2.22113,-16.81709 2.22113,-16.81709 0,0 0,-22.21125 0,-23.79777 0,-1.58651 4.12495,-15.23057 4.12495,-16.81709 0,-1.58651 1.58651,-24.43237 1.58651,-24.43237 v -23.48047 l -4.75955,-15.23057 -2.22112,-7.29798 2.22112,-2.22112 13.32675,0.3173 1.26921,-28.24002 -1.90382,-4.44225 -0.3173,-9.2018 8.5672,8.24989 7.29798,7.93259 7.61528,6.98068 3.80765,4.75955 1.58651,0.63461 -3.49033,5.71146 1.26921,2.85574 4.75955,-0.95191 3.49034,-3.80765 7.29799,6.02877 c 0,0 4.12494,-4.44225 1.90382,0.95191 -2.22113,5.39416 1.58651,1.90382 1.58651,1.90382 l -3.49033,5.07686 -0.31731,1.26921 -0.3173,4.75956 3.80764,1.58652 4.75955,3.49033 1.26922,-0.95191 h 5.07686 c 0,0 3.80764,0 4.12494,-4.12494 0.31731,-4.12495 1.58652,-10.78832 1.58652,-10.78832 l -2.22112,-6.66338 -7.61529,-10.78832 -4.12495,-8.8845 -0.6346,-4.75955 c 0,0 -5.71147,-5.39417 -6.98068,-7.93259 -1.26922,-2.53843 -14.59597,-17.4517 -14.59597,-17.4517 l -4.75955,-9.83641 -19.35552,-23.79777 -1.90382,-2.221125 -0.63461,-19.672821 -13.00944,-0.317304 -2.22113,-16.817089 -8.24989,-11.422929 -11.74023,-6.028768 -9.83642,-4.124946 -6.66337,-0.951911 -6.02877,-0.317304 z"
       id="path1" />
    <path
       style="fill:#000080;fill-opacity:1"
       d="m 112.64277,33.634179 -4.75955,2.855732 -4.75956,4.124947 -3.173034,9.519107 c 0,0 -0.634607,4.44225 -0.634607,6.028768 0,1.586518 4.442251,10.153714 4.442251,10.153714 l 10.78832,6.346072 15.86518,1.903821 12.69214,-4.44225 6.66338,-6.346071 2.85573,-10.471018 -8.24989,-16.81709 -10.15372,-6.028768 -6.98068,-1.269214 -7.29798,0.634607 z"
       id="path2" />
    <path
       style="fill:#f2f2f2;fill-opacity:1"
       d="m 88.210394,39.980251 c -3.490339,18.72091 -2.855732,26.018893 -2.855732,26.018893 l -14.595965,0.317303 1.586518,18.086304 v 2.221125 l -26.336197,32.364964 -20.942036,28.24002 -3.490339,9.83641 -10.788321,17.4517 -0.634608,8.8845 3.49034,6.34607 5.711464,5.39416 9.836411,-5.71147 c 0,0 -1.269214,-3.49033 -0.951911,-4.75955 0.317304,-1.26921 -0.317303,-8.5672 -0.317303,-8.5672 l 9.519107,-6.98067 6.028768,6.02876 4.759554,-3.17303 c 0,0 -6.663376,-3.49034 -4.759554,-6.98068 1.903821,-3.49034 28.557322,-29.19193 28.557322,-29.19193 l 0.634607,15.23057 -3.173036,2.53843 0.317304,21.89395 13.32675,2.85573 3.173036,5.71146 -5.076858,17.1344 -1.269214,13.32675 0.634607,9.5191 0.317304,18.08631 1.269214,11.10562 1.586518,10.78832 0.951911,2.85574 -0.951911,33.31687 3.490339,13.64406 1.269215,10.15371 1.586517,1.26922 -0.95191,10.78832 -0.634607,2.85573 26.336192,-1.90382 -0.6346,-10.78832 3.80764,-12.05754 c 0,0 0,-17.769 0,-19.99013 0,-2.22112 1.58652,-11.74023 1.58652,-11.74023 v -28.55732 -6.66337 l 1.58652,-9.20181 c 0,0 1.90382,1.26922 -0.95191,-8.24989 -2.85574,-9.51911 0.6346,-30.46114 0.6346,-30.46114 l 3.49034,-4.44225 1.90382,0.3173 1.26922,7.29798 0.3173,16.18248 0.63461,13.64406 0.3173,7.61528 0.95191,7.29799 -0.3173,9.2018 1.90382,15.86518 -1.26921,13.96136 2.22112,8.24989 -0.95191,17.769 1.26921,9.83641 1.90383,3.80764 v 6.34607 l -1.26922,4.44225 h 25.70159 l -0.63461,-9.5191 0.63461,-6.02877 1.58652,-10.47102 c 0,0 1.26921,-1.26921 2.85573,-11.42293 1.58652,-10.15371 -0.3173,-28.87462 -0.3173,-30.46114 0,-1.58652 3.80764,-18.72091 3.80764,-18.72091 0,0 2.53843,-28.24002 2.53843,-29.50923 0,-1.26922 -1.26921,-21.89395 -1.26921,-21.89395 l -5.39417,-12.69214 0.63461,-6.34608 1.90382,-2.53842 h 12.69215 l 1.26921,-25.38429 c 0,0 -3.49034,-0.95191 -3.49034,-2.53843 0,-1.58652 0,-13.64405 0,-13.64405 l 10.47102,9.5191 17.13439,17.4517 2.53843,1.58652 -4.44225,7.61528 2.85573,2.53843 8.8845,-6.34607 8.2499,8.8845 -1.58652,6.34607 0.63461,1.58652 -1.90383,4.44225 4.12495,1.58652 3.49034,2.53843 2.53843,-0.63461 c 0,0 2.85573,2.53843 4.12494,0 1.26922,-2.53843 4.75956,-2.22112 4.75956,-6.34607 0,-4.12495 0,-10.78832 0,-10.78832 l -10.47102,-18.08631 -4.44225,-6.34607 1.58652,-5.39416 -15.23057,-17.13439 -5.07686,-6.98068 -13.32675,-17.13439 -14.27866,-16.49979 -1.26922,-5.39416 0.95191,-16.81709 -13.00944,0.634607 c 0,0 2.85573,-18.086303 -1.26922,-21.893946 -4.12494,-3.807643 -11.74023,-9.201804 -11.74023,-9.201804 0,0 -6.34607,-0.317304 -8.24989,-2.538429 -1.90382,-2.221125 -10.15372,-5.076857 -10.15372,-5.076857 l -8.56719,-0.951911 -9.51911,2.221125 -6.98068,3.173036 -9.519106,2.538429 z"
       id="path3" />
    <path
       style="fill:#ffffff;fill-opacity:1"
       d="m 324.60156,146.91156 v -1.90383"
       id="path4" />
    <ellipse
       style="fill:#0000ff;fill-opacity:1;stroke-width:1.12897"
       id="path6"
       cx="124.85892"
       cy="52.355091"
       rx="23.956419"
       ry="21.25934" />
    <path
       style="fill:#ffffff;fill-opacity:1"
       d="m 117.40232,37.441822 c -1.69467,0.825352 -2.55901,2.559012 -3.80764,3.807643 -0.0748,0.07479 -0.21154,0 -0.3173,0 -0.42307,0.528839 -0.87558,1.035421 -1.26922,1.586518 -0.77946,0.11314 -0.13177,0.673617 -0.3173,0.95191 -0.24891,0.373371 -0.81001,0.526204 -0.95191,0.951911 -0.0952,0.285573 0.0952,0.666338 0,0.951911 -0.76612,2.298362 0.0915,-0.500263 -0.63461,0.951911 -0.47988,0.959766 0.51556,2.340171 -0.3173,3.173035"
       id="path8" />
    <path
       style="fill:#ffffff;fill-opacity:1"
       d="m 85.989269,183.71877 c 0.569471,-0.14237 1.910158,-0.58656 2.538429,-0.3173 0.412452,0.17676 0.541851,0.76966 0.95191,0.95191 0.587911,0.26129 1.318128,0.0511 1.903822,0.3173 0.616541,0.28025 0.998505,0.93321 1.586518,1.26922 0.183664,0.10495 0.445404,-0.0946 0.634607,0 0.473008,0.2365 0.820759,0.67162 1.269214,0.95191 0.883354,0.55209 1.988992,0.69138 2.855732,1.26921 0.196784,0.13119 0.120521,0.50342 0.317304,0.63461 0.352017,0.23468 0.890808,-0.18921 1.269214,0 1.269211,0.6346 0.158652,0.47595 0.951911,0.95191 0.80735,0.48441 2.50312,1.08408 3.17304,1.58652 0.35898,0.26924 0.55055,0.75123 0.95191,0.95191 0.2838,0.1419 0.64408,-0.077 0.95191,0 0.43533,0.10883 0.55055,0.75123 0.95191,0.95191 0.39005,0.19502 0.86431,0.15534 1.26921,0.3173 0.93186,0.37274 1.03905,1.78874 1.90382,2.22113 0.18921,0.0946 0.43393,-0.0669 0.63461,0 0.32867,0.10955 0.63712,0.47721 0.95191,0.6346 0.30836,0.15418 0.96085,0.16313 1.26922,0.31731 0.26757,0.13378 0.36703,0.50082 0.6346,0.6346 0.49494,0.24747 2.45349,0.95191 2.85574,0.95191"
       id="path9" />
    <path
       style="fill:#ffffff;fill-opacity:1"
       d="m 97.094894,188.16102 c 0.951911,0 1.922307,-0.18668 2.855732,0 4.389554,0.87791 7.070294,2.41424 10.788324,4.44225 1.63483,0.89172 3.39825,1.69913 5.07686,2.53843 0.0946,0.0473 0.24251,-0.0748 0.3173,0 0.18154,0.18154 0,1.34487 0,1.58652 0,0.92698 0.0627,1.52385 -0.63461,2.22112"
       id="path10" />
    <path
       style="fill:#ffffff;fill-opacity:1"
       d="m 131.68098,198.63204 c 2.21052,-2.45613 3.22127,-3.92487 6.02877,-5.71147 1.19718,-0.76184 2.57559,-1.19978 3.80764,-1.90382 1.73269,-0.9901 3.38005,-2.12263 5.07686,-3.17303 0.52438,-0.32462 1.05105,-0.64593 1.58652,-0.95191 0.2904,-0.16595 0.7002,-0.0971 0.95191,-0.31731 3.44709,-3.0162 1.33699,-1.6317 5.07686,-4.12494 0.12445,-0.083 0.1754,-0.27001 0.3173,-0.31731 0.30102,-0.10034 0.66811,0.1419 0.95191,0 0.46017,-0.23008 0.6635,-0.6346 1.26922,-0.6346 -0.52884,0.84614 -0.91902,1.79676 -1.58652,2.53842 -0.1926,0.214 -2.42692,1.47501 -2.85573,1.90383 -0.26966,0.26965 -0.36495,0.68225 -0.63461,0.95191 -0.65207,0.65206 -1.31289,0.84785 -1.90382,1.58651 -0.23823,0.29779 -0.33682,0.71369 -0.63461,0.95191 -0.74406,0.59525 -3.36679,1.2616 -4.12495,1.58652 -0.97997,0.41999 0.59984,0.35247 -0.95191,0.63461 -1.88464,0.34266 -3.82507,0.30171 -5.71146,0.63461 -0.85891,0.15157 -1.67501,0.51126 -2.53843,0.6346 -0.46134,0.0659 -1.83034,-0.46427 -2.22112,0.31731 -0.31659,0.63317 0,2.12549 0,2.85573"
       id="path11" />
    <path
       style="fill:#ffffff;fill-opacity:1"
       d="m 105.97939,266.2177 c -5.18262,0 -10.365246,0 -15.547871,0 4.164421,1.18657 8.137111,0.95191 12.374841,0.95191 0.52884,0 1.07998,0.15196 1.58652,0 0.59071,-0.17721 0.96978,-0.95191 1.58651,-0.95191 0.80551,0 1.45696,0.69719 2.22113,0.95191 0.20068,0.0669 0.42307,0 0.63461,0 0.52884,0.10577 1.09081,0.10486 1.58651,0.3173 1.0346,0.4434 0.33572,0.63461 1.26922,0.63461"
       id="path12" />
    <path
       style="fill:#ffffff;fill-opacity:1"
       d="m 140.56548,267.80422 c 4.15293,0.62097 8.52661,-0.52069 12.69215,0 0.6346,0.10577 1.26921,0.21153 1.90382,0.3173 0.21153,0.10577 0.40269,0.27092 0.63461,0.31731 0.62228,0.12445 1.28153,-0.12446 1.90382,0 0.13042,0.0261 2.85573,0.70183 2.85573,0.3173 0,-0.10577 -0.21154,0 -0.3173,0 -0.74038,0 -1.48075,0 -2.22113,0"
       id="path13" />
    <path
       style="fill:#ffffff;fill-opacity:1"
       d="m 139.29627,270.65995 c 6.45184,0 12.90368,0 19.35552,0"
       id="path14" />
    <path
       style="fill:#ffffff;fill-opacity:1"
       d="m 92.018037,266.535 c 1.586518,-0.10576 3.170244,-0.26914 4.759554,-0.3173 2.748702,-0.0833 5.508029,-0.21091 8.249889,0 4.93392,0.37953 -0.73917,0.3173 2.53843,0.3173 0.084,0 4.16822,0.55838 3.17304,1.26922 -0.6939,0.49564 -1.41974,0.9778 -2.22113,1.26921 -0.68347,0.24854 -4.36728,0.1467 -5.39416,0 -1.44303,-0.20615 -2.72392,-1.23626 -4.124944,-1.58652 -1.590808,-0.3977 -3.465047,0.0409 -5.076858,-0.3173 -2.647675,-0.58837 -1.245239,-1.15188 -4.124946,0 -0.196406,0.0786 0.43121,0.0581 0.634607,0 0.547662,-0.15647 1.016941,-0.63461 1.586518,-0.63461 1.495783,0 2.95389,0.48577 4.44225,0.63461 3.721003,0.3721 7.674743,0 11.422933,0"
       id="path15" />
    <path
       style="fill:#ffffff;fill-opacity:1"
       d="m 140.24818,267.80422 c 4.69776,-0.0538 9.26671,0.3173 13.96136,0.3173 2.5e-4,0 -1.26897,0 -1.26922,0 -3.70187,0 -7.40375,0 -11.10562,0 -1.79806,0 -3.63893,-0.39005 -5.39416,0 -0.37227,0.0827 -0.59013,0.51401 -0.95191,0.63461 -0.30102,0.10034 -0.64408,-0.077 -0.95191,0 -0.97345,0.24336 -1.89465,0.66358 -2.85574,0.95191 -0.1013,0.0304 -0.42307,0 -0.3173,0 3.06536,0 5.86522,-1.52641 8.8845,-1.90382 0.82873,-0.10359 8.07339,-0.19753 8.5672,0 0.43917,0.17567 0.82048,0.48503 1.26921,0.63461 0.20068,0.0669 0.44541,-0.0946 0.63461,0 0.48542,0.084 0.55055,0.75123 0.95191,0.95191 0.85733,0.42866 0.14265,-0.49196 1.26921,0.6346 0.21154,0.21154 0.90218,0.50082 0.63461,0.63461 -1.26925,0.63463 -3.01391,-1.30304 -3.80764,-1.58652 -1.99479,-0.71242 -6.72113,0.20189 -7.93259,-0.3173 -0.56686,-0.24294 -1.00144,-1.14694 -1.58652,-0.95191 -0.99332,0.3311 -1.93348,1.21436 -2.22112,2.22112 -0.14529,0.50849 1.07027,-0.11472 1.58651,0 0.46175,0.10261 0.79784,0.59533 1.26922,0.63461 4.21779,0.35148 8.74035,0 13.00944,0"
       id="path16" />
    <path
       style="fill:#ff0000;fill-opacity:1"
       d="m 97.729501,70.441394 c 0.740375,0.105768 1.511613,0.0808 2.221125,0.317303 0.897474,0.299157 1.679484,0.872779 2.538424,1.269215 5.79985,2.676851 -1.88194,-0.943159 2.85574,0.95191 1.09415,0.437661 2.07888,1.148858 3.17303,1.586518 0.62109,0.248436 1.28898,0.371101 1.90382,0.634607 0.86953,0.372655 1.65547,0.929615 2.53843,1.269215 0.50337,0.193602 1.10415,0.07612 1.58652,0.317303 0.21154,0.105768 0.1145,0.512927 0.3173,0.634607 1.92936,1.157616 0.72052,-0.26576 2.22113,0.634608 0.25652,0.153914 0.36703,0.50082 0.63461,0.634607 0.1892,0.0946 0.4454,-0.0946 0.6346,0 0.26758,0.133787 0.3857,0.468665 0.63461,0.634607 0.26691,0.177941 2.11837,1.10119 2.53843,1.269214 0.19641,0.07856 0.4454,-0.0946 0.63461,0 0.73886,0.369431 1.20331,1.1487 1.90382,1.586518 0.44845,0.280284 1.64316,0.577965 1.26921,0.951911 -0.0748,0.07479 -0.2126,-0.01496 -0.3173,0 -0.6369,0.09098 -1.29348,0.113855 -1.90382,0.317303 -0.36178,0.120594 -0.58523,0.529842 -0.95191,0.634608 -0.4068,0.116226 -0.8519,-0.06955 -1.26922,0 -0.23328,0.03888 -0.41024,0.242514 -0.6346,0.317303 -0.79318,0.264393 -3.24344,0.246907 -3.80765,-0.317303 -0.37394,-0.373946 -0.57796,-0.895269 -0.95191,-1.269215 -0.55331,-0.553312 -2.65552,-2.012421 -3.49034,-2.221125 -0.51305,-0.128262 -1.06487,0.08694 -1.58652,0 -0.52164,-0.08694 -0.7782,-0.755505 -1.26921,-0.951911 -0.67807,-0.271228 -2.99225,-0.578342 -3.49034,-0.95191 -0.23932,-0.179494 -0.42307,-0.423072 -0.63461,-0.634607 -0.3173,-0.105768 -0.66151,-0.151362 -0.95191,-0.317304 -0.71723,-0.409847 -1.16496,-1.217087 -1.90382,-1.586518 -0.67504,-0.337522 -1.21442,-0.01445 -1.58652,-0.634607 -0.25449,-0.424154 -0.664963,-1.473404 -0.951907,-1.903821 -1.371659,-2.057488 -3.325638,1.092413 -1.903822,-3.173036 z"
       id="path17" />
    <path
       style="fill:#ff0000;fill-opacity:1"
       d="m 151.67111,71.710608 c -6.77555,2.117358 -3.29991,0.616447 -8.8845,3.807643 -0.78114,0.446365 -1.19515,1.055016 -1.90382,1.586518 -0.52839,0.396289 -1.43876,0.48685 -1.90382,0.951911 -0.16724,0.167233 -0.15007,0.467373 -0.31731,0.634607 -0.77914,0.779145 -0.58495,-0.111941 -1.58652,0.317303 -0.48608,0.20832 -0.81573,0.679825 -1.26921,0.951911 -0.66027,0.396163 -1.51338,0.331289 -2.22112,0.634607 -0.13749,0.05892 -0.21154,0.211536 -0.31731,0.317304 -0.42307,0.211536 -0.82632,0.468523 -1.26921,0.634607 -0.81665,0.306244 -1.75833,0.244555 -2.53843,0.634607 -0.66894,0.334467 0.97382,1.15763 1.58652,1.586518 0.69858,0.489007 1.61815,0.666245 2.22112,1.269214 0.16724,0.167234 0.15007,0.467374 0.31731,0.634607 0.40178,0.40178 2.25021,0.785988 2.85573,0.634608 1.94571,-0.48643 2.22536,-1.41005 3.49034,-2.855733 0.39399,-0.450276 0.96138,-0.756164 1.26921,-1.269214 0.24336,-0.405601 0.33912,-0.899857 0.63461,-1.269214 0.14774,-0.184679 0.46737,-0.15007 0.63461,-0.317304 0.16723,-0.167233 0.15007,-0.467373 0.3173,-0.634607 0.16723,-0.167234 0.46737,-0.15007 0.63461,-0.317304 0.16723,-0.167233 0.16589,-0.452919 0.3173,-0.634607 0.38303,-0.459637 0.91023,-0.790563 1.26921,-1.269214 0.0261,-0.03474 0.51374,-1.36743 0.95191,-1.586518 0.79664,-0.398316 1.70002,-0.532704 2.53843,-0.951911 0.26758,-0.133787 0.35081,-0.540005 0.63461,-0.634607 0.75404,-0.251346 0.5763,0.375615 1.26921,-0.317303 0.42308,-0.423072 -0.6731,-0.304472 0.31731,-0.634607 1.43201,-0.477337 1.40782,0.375728 0.95191,-1.903822 z"
       id="path18" />
    <ellipse
       style="fill:#ffffff;fill-opacity:1"
       id="path19"
       cx="97.570847"
       cy="136.28189"
       rx="4.9182053"
       ry="4.6009021" />
    <ellipse
       style="fill:#ffffff;fill-opacity:1"
       id="path20"
       cx="149.76729"
       cy="137.86841"
       rx="4.4422503"
       ry="4.6009021" />
    <rect
       style="fill:#ffffff;fill-opacity:1"
       id="rect20"
       width="49.182053"
       height="20.942036"
       x="99.316017"
       y="102.17175" />
    <rect
       style="fill:#ffffff;fill-opacity:1"
       id="rect21"
       width="13.644053"
       height="0.95191073"
       x="125.96952"
       y="103.12366" />
    <path
       style="fill:#ffffff;fill-opacity:1"
       d="m 25.384286,151.98841 c 10.839039,0 4.203642,0.12074 14.278661,-0.3173 1.385238,-0.0602 3.573726,-0.47325 4.759554,0.3173 0.248913,0.16595 0.385693,0.46867 0.634607,0.63461 0.088,0.0587 0.242514,-0.0748 0.317303,0 0.167234,0.16723 0.15007,0.46737 0.317304,0.63461 0.423071,0.42307 0.304472,-0.67311 0.634607,0.3173 0.06689,0.20068 -0.0513,0.42939 0,0.63461 0.02798,0.11191 1.870079,3.29005 1.269214,3.49034 -0.483514,0.16117 -1.813413,0.0904 -2.221125,-0.31731 -1.004405,-1.0044 1.004406,0.3698 0,-0.6346 -0.569577,-0.56958 -1.485046,-0.62477 -2.221125,-0.95191 -1.051264,-0.46723 -2.093742,-1.22676 -3.173035,-1.58652 -1.258451,-0.41949 1.867699,1.75522 -1.586518,-0.31731 -0.202801,-0.12168 -0.120521,-0.50341 -0.317304,-0.6346 -0.176008,-0.11734 -0.438201,0.0786 -0.634607,0 -1.566267,-0.62651 -0.295383,-0.68384 -1.903822,-0.95191 -0.312986,-0.0522 -0.640768,0.0622 -0.95191,0 -2.005831,-0.40117 1.105892,-0.33545 -1.586518,-0.63461 -0.735847,-0.0818 -1.558914,0.3311 -2.221125,0 -1.452174,-0.72609 1.346451,0.13151 -0.951911,-0.63461 -1.568143,-0.52271 -3.162784,0.18423 -4.44225,0.95191 z"
       id="path21" />
    <path
       style="fill:#ffffff;fill-opacity:1"
       d="m 217.03565,150.08459 c -2.71007,0.11199 -5.36593,-0.46539 -7.93259,0.63461 -0.89448,0.38334 -1.3489,1.78501 -2.22113,2.22112 -0.2838,0.14191 -0.67982,-0.16325 -0.95191,0 -0.32701,0.19621 -0.36495,0.68226 -0.63461,0.95191 -0.78752,0.78753 -1.64169,0.74496 -2.22112,1.90383 -0.0459,0.0918 -0.32383,3.33658 0.3173,2.85573 0.90596,-0.67947 0.84676,-1.16369 1.90382,-1.58652 0.19641,-0.0786 0.44541,0.0946 0.63461,0 1.02327,-0.51164 1.95267,-1.20144 2.85573,-1.90382 0.59035,-0.45916 0.91759,-1.25205 1.58652,-1.58652 1.56613,-0.78306 3.41714,-0.85428 5.07686,-1.26921 0.10261,-0.0257 0.21153,0 0.3173,0 0.21154,-0.10577 0.40517,-0.25995 0.63461,-0.31731 0.94843,-0.23711 4.12495,0.3922 4.12495,-0.3173 0,-0.10577 -0.23269,0.0635 -0.31731,0 -1.88524,-1.41393 -0.078,-1.58652 -3.17303,-1.58652 z"
       id="path22" />
    <path
       style="fill:#ffffff;fill-opacity:1"
       d="m 28.240018,151.98841 c 0.846143,-0.10577 1.700306,-0.16015 2.538429,-0.3173 2.284008,-0.42825 5.782809,-1.56868 8.249893,-0.95191 0.229443,0.0574 0.405164,0.25994 0.634607,0.3173 0.597277,0.14932 1.306544,-0.14932 1.903821,0 0.229443,0.0574 0.546747,0.57725 0.317304,0.63461 -1.433254,0.35831 -1.507998,-0.4367 -2.538429,-0.95191 -0.679199,-0.3396 -9.041246,0 -10.471018,0"
       id="path23" />
    <path
       style="fill:#ffffff;fill-opacity:1"
       d="m 41.249465,150.08459 c -0.423072,0 -0.87308,-0.14855 -1.269214,0 -0.98221,0.36833 -1.646446,1.45783 -2.538429,1.90382 -2.545057,1.27253 0.695102,-0.99728 -1.903822,0.95191 -0.256841,0.19263 -3.614768,0 -4.44225,0 -0.501604,0 -2.266515,0.27192 -2.538428,0 -0.163885,-0.16388 0,-1.66859 0,-1.90382"
       id="path24" />
    <path
       style="fill:#ffffff;fill-opacity:1"
       d="m 76.787465,85.671965 c 0,-0.528839 -0.256827,-1.124229 0,-1.586517 0.813812,-1.464862 5.183943,-3.490904 6.663375,-4.124947 0.536229,-0.229812 1.42923,-0.349852 1.903822,-0.634607 0.453476,-0.272086 0.796206,-0.715407 1.269214,-0.951911 0.189203,-0.0946 0.440175,0.08333 0.634607,0 0.566862,-0.242941 1.022946,-0.701434 1.586518,-0.951911 0.398506,-0.177113 0.868383,-0.145518 1.269214,-0.317303 0.354964,-0.152127 1.482929,-0.846688 1.903822,-0.951911 0.30783,-0.07696 0.65089,0.10034 0.951911,0 0.10034,-0.03345 0,-0.211536 0,-0.317303 0.211535,-0.105768 0.405164,-0.259943 0.634607,-0.317304 0.40209,-0.100523 1.562162,0 1.903821,0"
       id="path25" />
    <path
       style="fill:#ff0000;fill-opacity:1"
       d="m 154.52684,75.835555 c 1.90382,0 3.80838,-0.05286 5.71147,0 6.6723,0.185341 5.41288,-0.115689 9.83641,2.538428 0.27605,0.16563 0.77876,0.288304 0.95191,0.634607 0.48276,0.965534 0.78644,1.890199 1.26921,2.855733 0.37263,0.745248 1.45304,1.53618 0.95191,2.538428 -0.32979,0.659577 -2.15662,0.317304 -2.85573,0.317304 -0.53475,0 -3.77045,0.07438 -3.80764,0 -0.0946,-0.189204 0,-0.423072 0,-0.634607"
       id="path26" />
    <path
       style="fill:#ffffff;fill-opacity:1"
       d="m 147.86347,75.835555 c 0.52884,0 1.07998,-0.151961 1.58651,0 0.59072,0.177215 1.0349,0.676101 1.58652,0.95191 0.59832,0.299157 1.26922,0.423072 1.90382,0.634607 0.83589,0.278628 5.11296,0.764444 5.39416,0.951911 0.24892,0.165942 0.3857,0.468665 0.63461,0.634607 0.44671,0.297803 1.84931,-0.371816 2.22113,0 0.0748,0.07479 -0.0748,0.242515 0,0.317304 0.0748,0.07479 0.2227,-0.0473 0.3173,0 1.2799,0.639951 3.75509,1.533963 4.75955,2.538429 0.29916,0.299156 -0.8764,0.157124 -1.26921,0 -0.27776,-0.111104 -0.38569,-0.468665 -0.63461,-0.634608 -0.94841,-0.632274 -2.5807,-1.269214 -3.80764,-1.269214 -1.64068,0 -1.40759,-0.862448 -1.58652,-0.951911 -0.1892,-0.0946 -0.42307,0 -0.63461,0 -0.21153,-0.211535 -0.38569,-0.468665 -0.6346,-0.634607 -0.16596,-0.110641 -2.43711,-0.233579 -2.85574,-0.317303 -0.85886,0.53928 -0.82047,-0.485029 -1.26921,-0.634608 -0.6664,-0.222133 -5.01766,0.09867 -5.07686,0 -0.29304,-0.488408 -0.42307,-1.057678 -0.6346,-1.586517 z"
       id="path27" />
    <path
       style="fill:#ffffff;fill-opacity:1"
       d="m 149.13268,75.518251 c 2.61803,-0.462292 5.28615,-0.317304 7.93259,-0.317304 0.75547,0 1.80247,-0.18399 2.53843,0 0.5743,-0.191247 0.59013,0.514014 0.95191,0.634608 0.20068,0.06689 0.42939,-0.0513 0.63461,0 0.62466,0.156165 1.39485,0.697426 1.90382,0.95191 1.46442,0.732211 1.07636,1.931842 1.26921,2.221125 1.03574,1.553602 2.93239,1.980482 4.12495,3.173036"
       id="path28" />
    <path
       style="fill:#2b0000;fill-opacity:0"
       d="m 72.66252,67.585663 c 4.230715,0 8.461429,0 12.692144,0"
       id="path5" />
    <path
       style="fill:#2b0000;fill-opacity:0;stroke:#000000;stroke-opacity:1"
       d="M 88.845003,42.201376 85.354664,65.681842"
       id="path7" />
    <path
       style="fill:#2b0000;fill-opacity:0;stroke:#000000;stroke-opacity:1"
       d="M 92.335342,69.806788 71.71061,67.585663"
       id="path29" />
    <path
       style="fill:#2b0000;fill-opacity:0;stroke:#000000;stroke-opacity:1"
       d="m 90.431521,69.489485 c -2.059295,0.514823 -0.617952,0.539942 -1.903822,-0.317304 -0.566735,-0.377824 -0.241095,0.939441 -0.634607,-0.634607 -0.0513,-0.20522 0.117339,-0.458599 0,-0.634607 -0.366806,-0.55021 -1.55217,-0.565913 -1.903821,-1.269215 -0.269959,-0.539917 -0.08047,-1.032377 -0.634607,-1.586518"
       id="path30" />
    <path
       style="fill:#2b0000;fill-opacity:0;stroke:#000000;stroke-opacity:1"
       d="m 71.076002,66.316449 c 0,2.88048 -0.08864,0.508682 0.951911,5.711464 0.231912,1.159557 0.478321,2.318192 0.634607,3.49034 0.05591,0.41936 -0.08297,0.854358 0,1.269214 0.0471,0.235517 0.559489,1.135807 0.634608,1.586518 0.278636,1.671817 -0.565104,4.581257 0,5.711464 0.269017,2.421159 0.681277,3.11169 -0.317304,5.394161 -0.399942,0.914153 -1.091465,1.672085 -1.586518,2.538429 -0.352017,0.616029 -0.545032,1.322566 -0.951911,1.903821 -0.428887,0.612697 -1.171662,0.964235 -1.586518,1.586518 -1.196956,1.795434 -2.014361,2.484971 -3.490339,4.124947 -0.453053,0.503395 -0.759536,1.140545 -1.269214,1.586515 -0.717315,0.62765 -3.563,1.88396 -4.124947,2.22113 -3.147531,1.88852 1.461981,-0.81763 -1.903821,1.58652 -0.577354,0.41239 -1.336212,0.5262 -1.903822,0.95191 -0.239325,0.17949 -0.373097,0.48932 -0.634607,0.6346 -0.961738,0.41218 -2.4955,1.01804 -3.490339,1.58652 -1.130437,0.64597 -2.254847,1.8093 -3.49034,2.22113 -1.067613,0.35587 -0.897891,-0.35782 -2.221125,0.6346 -0.657788,0.49334 4.009163,0.31731 4.44225,0.31731 0.877157,0 1.684482,0.0622 2.538429,-0.31731 2.4479,-1.08795 0.199732,-0.69098 2.221125,-1.90382 0.18139,-0.10883 0.469425,0.13215 0.634607,0 0.597553,-0.47804 3.173036,-4.80627 3.173036,-5.07685"
       id="path31" />
    <path
       style="fill:#2b0000;fill-opacity:0;stroke:#000000;stroke-opacity:1"
       d="m 58.066556,106.93131 c -3.218671,0 -1.727196,-0.44485 -4.442251,4.44225 -0.439356,0.79084 -0.529895,2.0117 -0.95191,2.85573 -0.440653,0.88131 -1.672062,1.39753 -2.221125,2.22112 -0.09613,0.1442 0.135774,0.8614 0,0.95192 -0.278294,0.18552 -0.673618,0.13177 -0.951911,0.3173 -0.088,0.0587 0.07479,0.24251 0,0.3173 -0.236369,0.23637 -1.089927,0.45532 -1.269214,0.63461 -0.07479,0.0748 0.0473,0.2227 0,0.3173 -0.204022,0.40805 -1.26108,0.78919 -1.586518,0.95191 -1.081982,0.54099 -1.378434,2.27574 -2.538429,2.85574 -0.189203,0.0946 -0.445404,-0.0946 -0.634607,0 -0.4986,0.2493 -4.915726,4.59346 -5.076858,5.07685 -0.100667,0.30201 0,1.26707 0,1.58652 -0.740375,1.26921 -1.492111,2.53187 -2.221125,3.80764 -0.374419,0.65524 -0.03657,1.34237 -0.317303,1.90383 -0.200681,0.40136 -0.702998,0.57854 -0.951911,0.95191 -0.117339,0.17601 0.0946,0.4454 0,0.6346 -0.487413,0.97483 -0.17897,-0.5248 -0.951911,0.63461 -1.005384,1.50808 1.218656,-0.26674 -0.317303,1.26922 -0.373405,0.3734 -1.792324,1.41499 -2.221125,1.58651 -0.196406,0.0786 -0.433927,-0.0669 -0.634608,0 -0.155853,0.052 -2.028518,1.45812 -2.221125,1.58652 -0.264012,0.17601 -0.65089,-0.10034 -0.95191,0 -0.677924,0.22598 -0.951911,2.50986 -0.951911,3.17304"
       id="path32" />
    <path
       style="fill:#2b0000;fill-opacity:0;stroke:#000000;stroke-opacity:1"
       d="m 26.336197,147.22886 c 0,2.68827 0.217669,-0.26314 -0.95191,2.85573 -0.111413,0.29711 0.117843,0.65731 0,0.95192 -0.111104,0.27776 -0.500821,0.36703 -0.634608,0.6346 -0.36549,0.73098 0.27306,0.79937 -0.317303,1.58652 -0.434187,0.57892 -1.185268,0.98464 -1.586518,1.58652 -0.19661,0.29491 0.160079,0.94905 0,1.26921 -0.131343,0.26269 -1.083861,0.76656 -1.269214,0.95191 -0.652599,0.6526 -0.715517,1.38122 -1.586518,1.90382 -0.181391,0.10884 -0.423072,0 -0.634607,0 -0.317304,1.05768 -0.661364,2.1077 -0.951911,3.17304 -0.157684,0.57818 -0.276604,1.74379 -0.634607,2.22113 -0.269241,0.35898 -0.721039,0.56712 -0.951911,0.95191 -0.237978,0.39663 0.118989,0.59494 0,0.95191 -0.301066,0.9032 -1.063877,1.75446 -1.586518,2.53843 -0.828513,1.24276 -1.805536,1.11617 -2.855732,1.90382 -0.239326,0.17949 -0.378083,0.48069 -0.634607,0.6346 -0.286804,0.17209 -0.673618,0.13178 -0.951911,0.31731 -0.208817,0.13921 0,1.86337 0,2.22112 -0.9424847,0.64814 -0.490971,3.20307 -0.9519109,4.12495 -0.2420155,0.48403 -0.7152968,0.79599 -0.9519108,1.26921 -0.1012552,0.20251 -0.1105072,4.42804 0,4.75956 0.080284,0.24085 0.9065373,1.54114 0.9519108,1.58652 0.3083639,0.30836 0.8555009,0.17939 1.2692139,0.3173 6.844437,6.15999 2.406949,0.74329 3.173036,3.80764 0.148344,0.59338 1.232339,1.23234 1.586518,1.58652 0.289699,0.2897 -0.144538,1.12468 0.317304,1.58652 0.001,0.001 0.98171,0.66441 1.269214,0.95191"
       id="path33" />
    <path
       style="fill:#2b0000;fill-opacity:0;stroke:#000000;stroke-opacity:1"
       d="m 21.25934,193.87249 c 3.950557,-0.56437 1.665281,-0.0753 7.297982,-2.22113 0.52884,-0.21153 1.057679,-0.42307 1.586518,-0.6346 0.105768,-0.10577 0.183517,-0.25041 0.317304,-0.31731 0.0946,-0.0473 0.242514,0.0748 0.317303,0 0.02659,-0.0266 -0.503957,-0.87726 -0.634607,-1.26921 -0.181654,-0.54496 0.157861,-0.79405 -0.317303,-1.26922"
       id="path34" />
    <path
       style="fill:#2b0000;fill-opacity:0;stroke:#000000;stroke-opacity:1"
       d="m 27.922715,186.89181 c 0.362309,-1.55889 0.620983,-3.5244 0,-5.07686 -0.05555,-0.13888 -0.211535,-0.21153 -0.317303,-0.3173 -0.105768,-0.21154 -0.242515,-0.41024 -0.317304,-0.63461 -0.06689,-0.20068 0.117339,-0.4586 0,-0.63461 -0.78503,-1.17754 -0.636247,-0.008 -0.951911,-1.58651 -0.06223,-0.31114 0.141903,-0.66811 0,-0.95191 -0.06689,-0.13379 -0.317303,-0.16773 -0.317303,-0.31731 0,-0.12268 1.409777,-2.04438 1.586518,-2.22112 4.039364,-0.57706 0.864215,0.2025 3.173035,-0.95191 0.473009,-0.23651 1.084817,0.16723 1.586518,0 0.711513,-0.23717 0.557702,-0.71474 1.269215,-0.95191 0.475955,-0.15866 0.317303,0.3173 0.95191,0 1.141179,-0.57059 0.232551,-0.54986 0.951911,-1.26922 0.167234,-0.16723 0.437824,-0.18611 0.634607,-0.3173 0.655905,-0.43727 0.608668,-0.90003 0.951911,-1.58652 0.392093,-0.78419 0.317304,0.10953 0.317304,-0.63461 0.974731,0.56302 3.490339,1.18672 3.490339,2.85574 0,0.21153 -0.149578,0.48502 0,0.6346 0.409902,0.4099 1.586518,0.004 1.586518,0.63461 0.187222,-0.26302 5.186429,0.84234 5.711465,0.3173 0.109235,-0.10923 0.09689,-1.75848 0,-1.90382 -0.165943,-0.24891 -0.468665,-0.38569 -0.634608,-0.63461 -0.271125,-0.40668 0.148848,-0.48576 -0.317303,-0.95191 -1.726909,-0.5647 -2.538429,-0.23189 -2.538429,-1.90382 0,-0.3173 0.176008,-0.6879 0,-0.95191 -0.117339,-0.17601 -0.445404,0.0946 -0.634607,0 -0.0946,-0.0473 0.07479,-0.24251 0,-0.3173 -0.07479,-0.0748 -0.242514,0.0748 -0.317304,0 -0.432408,-0.43241 -0.634607,-1.01177 -0.634607,-1.58652 -0.0129,-3.63909 -0.185766,-1.75094 2.221125,-4.75955 0.238229,-0.29779 0.464062,-0.61082 0.634607,-0.95191 0.0473,-0.0946 -0.07479,-0.24252 0,-0.31731 0.511402,-0.5114 1.903822,-0.77306 1.903822,-1.58652 1.269214,-0.42307 2.581944,-0.73297 3.807643,-1.26921 1.330625,-0.58215 2.480993,-1.8751 3.807643,-2.53843 0.482376,-0.24119 1.137783,-0.0181 1.586518,-0.3173 0.196783,-0.13119 0.124852,-0.49714 0.317303,-0.63461 1.073816,-0.76701 2.417595,-1.13757 3.49034,-1.90382 0.365151,-0.26082 0.68267,-0.59292 0.951911,-0.95191 0.06346,-0.0846 -0.100341,-0.28386 0,-0.31731 0.30102,-0.10034 0.644081,0.077 0.95191,0 0.323984,-0.081 0.504268,-0.82157 0.634607,-0.95191 0.813824,-0.81382 -0.35871,1.86707 0.951911,-0.3173 0.224368,-0.37395 0.155343,-0.86431 0.317304,-1.26921 0.27776,-0.6944 1.107729,-1.01198 1.586518,-1.58652 0.700516,-0.84062 1.107383,-1.89747 1.586518,-2.85573 0.20068,-0.40137 0.671588,-0.60151 0.95191,-0.95192 0.63676,-0.79594 1.172735,-1.71086 1.586518,-2.53842 0.660271,-1.32055 -0.02191,0.33921 0.634607,-0.31731 0.52288,-0.52288 -0.06099,-1.52552 0.951911,-2.53843 -2.902437,0.67388 -0.366831,2.63749 -0.951911,3.80765 -0.20068,0.40136 -0.721038,0.56712 -0.95191,0.95191 -0.174822,0.29137 0,4.01802 0,4.44225 0,0.68841 -0.139046,3.10351 0,3.17303 0.189203,0.0946 0.485029,0.14958 0.634607,0 0.156736,-0.15673 0.150905,-3.95854 0.317303,-4.12494 1.533537,-1.53354 0.64941,0.5902 1.586518,-2.22113 0.265574,-0.79672 -0.350391,-4.26705 0.634608,-4.75955 0.787499,-0.39375 0.113938,2.08267 0,2.53843 -0.179568,0.71827 0,1.48075 0,2.22112 0,1.42942 0.350439,6.94754 -0.317304,7.61529 1.730071,1.68694 -1.575359,2.50495 -1.903822,3.49034 -0.160577,0.48173 0.344627,1.26921 -0.317303,1.26921 -2.595215,2.56408 -1.02943,4.19524 -1.586518,6.98068 -0.111703,0.55852 -0.478132,1.03886 -0.634607,1.58652 -0.203397,0.71189 0,1.48075 0,2.22112 0,0.57762 0.36235,3.59677 0,4.44225 -0.20832,0.48608 -0.715407,0.79621 -0.951911,1.26922 -0.211536,0.42307 0.211536,1.16344 0,1.58652 -0.111102,0.2222 -0.920893,0.34832 -0.634607,0.6346 0.149578,0.14958 0.445404,-0.0946 0.634607,0 0.551618,0.27581 1.019656,0.70897 1.586518,0.95191 0.638718,0.27374 1.363261,0.0941 1.903821,0.63461 2.784477,0.60994 1.665824,0.26441 3.173036,1.26922 0.756555,0.50437 2.338366,-0.41734 3.173036,0 0.473008,0.2365 0.815738,0.67982 1.269214,0.95191 0.300909,0.18054 0.912062,-0.0714 1.269215,0 1.513029,0.3026 2.443324,0.5395 3.490339,1.58651"
       id="path35" />
    <path
       style="fill:#2b0000;fill-opacity:0;stroke:#000000;stroke-opacity:1"
       d="m 82.181628,176.7381 c 1.27924,8.31506 -0.261287,1.10128 1.586518,6.02876 0.320144,0.85372 -0.394535,1.82659 0.317303,2.53843 0.36869,2.52416 -0.249294,4.63863 -0.95191,6.98068 -0.346951,1.1565 -0.0956,2.41233 -0.634608,3.49034 -0.66027,1.32054 0.02191,-0.33921 -0.634607,0.3173 -0.224367,0.22437 0.07696,0.64408 0,0.95191 -0.150363,0.60146 -0.530463,0.84777 -0.951911,1.26922"
       id="path36" />
    <path
       style="fill:#2b0000;fill-opacity:0;stroke:#000000;stroke-opacity:1"
       d="m 79.325896,203.3916 c 0,3.62573 0.26151,1.94044 -0.634608,5.07685"
       id="path37" />
    <path
       style="fill:#2b0000;fill-opacity:0;stroke:#000000;stroke-opacity:1"
       d="m 81.547021,196.72822 c 0.317303,1.37498 0.706679,2.7353 0.95191,4.12495 0.159231,0.90231 0.214837,5.27189 0,6.34607 -0.157072,0.78536 -0.491862,0.97312 -0.95191,1.58652 -0.493312,0.65775 -0.05523,0.74507 -0.317304,1.26921 -0.105768,0.10577 -0.211536,0.21154 -0.317304,0.31731 -0.105767,0.10576 -0.25041,0.18351 -0.317303,0.3173 -0.461148,0.9223 -0.787303,1.42191 -1.586518,2.22112"
       id="path38" />
    <path
       style="fill:#2b0000;fill-opacity:0;stroke:#000000;stroke-opacity:1"
       d="m 81.547021,198.63204 c -2.083756,2.61961 -1.76143,5.96636 -2.855733,8.8845 -0.133901,0.35707 -0.464061,0.61082 -0.634607,0.95191 -0.363547,0.7271 -0.601076,5.4277 0,6.02877 0.90731,1.46778 -0.118137,3.55282 0.317304,5.07686 0.169428,0.593 0.802332,0.9882 0.951911,1.58652 0.102609,0.41044 -0.189204,0.8908 0,1.26921 0.170545,0.34109 0.492976,0.59784 0.634607,0.95191 0.774109,1.93528 -1.290868,-1.09377 0.317303,1.58652 0.384787,0.64131 1.137783,0.9882 1.586518,1.58652 0.348984,0.46531 -0.220043,1.67101 0,2.22112 0.141631,0.35408 0.464062,0.61082 0.634607,0.95191 0.189204,0.37841 -0.08297,0.85436 0,1.26922 0.04638,0.23191 0.259943,0.40516 0.317304,0.63461 0.377142,1.50856 0,5.79699 0,7.61528 0,1.01956 -0.284835,1.26922 0.634607,1.26922 0.105768,0 0.242515,0.0748 0.317304,0 0.293345,-0.29335 0,-1.6951 0,-2.22113 0,-0.10069 0.04541,-5.01631 0,-5.07686 -1.637611,-2.18348 -0.46468,0.0677 -0.951911,-2.85573 -0.08694,-0.52164 -0.715407,-0.79621 -0.951911,-1.26921 -0.204934,-0.40987 -0.317303,-3.91264 -0.317303,-4.75956"
       id="path39" />
    <path
       style="fill:#2b0000;fill-opacity:0;stroke:#000000;stroke-opacity:1"
       d="m 80.277806,308.73639 2.538429,-8.5672"
       id="path42" />
    <path
       style="fill:#2b0000;fill-opacity:0;stroke:#000000;stroke-opacity:1"
       d="M 84.720056,268.43883 82.181628,240.19881"
       id="path43" />
    <path
       style="fill:#2b0000;fill-opacity:0;stroke:#000000;stroke-opacity:1"
       d="M 70.758699,280.17906 84.402753,268.43883"
       id="path44" />
    <path
       style="fill:#2b0000;fill-opacity:0;stroke:#000000;stroke-opacity:1"
       d="m 92.96995,292.87121 -9.519108,-4.75956"
       id="path45" />
    <path
       style="fill:#2b0000;fill-opacity:0;stroke:#000000;stroke-opacity:1"
       d="m 86.941182,271.61187 -4.124947,16.81709 c -0.289365,3.54616 -0.697515,7.30074 0,10.78832 0.129441,0.6472 -0.332302,1.98459 0,2.53843 0.230872,0.38478 0.721038,0.56712 0.951911,0.95191 0.5197,0.86617 -0.421306,4.76485 0,6.02877 0.76612,2.29836 -0.09148,-0.50027 0.634607,0.95191 0.245693,0.49138 -0.177595,0.45701 0.317303,0.95191 0.211536,0.95191 0.474297,1.89387 0.634608,2.85573 0.140643,0.84386 -0.453534,6.70822 0,7.61529 0.133787,0.26757 0.468665,0.38569 0.634607,0.6346 0.161077,0.24162 0.22037,1.59977 0.634607,2.22113 0.829842,1.24476 3.173036,1.12663 3.173036,2.85573"
       id="path46" />
    <path
       style="fill:#2b0000;fill-opacity:0;stroke:#000000;stroke-opacity:1"
       d="m 87.893092,327.13999 c 0.543983,3.52504 0.317304,7.19868 0.317304,10.78833 3.913171,-10e-6 1.904067,0 6.028768,0 6.663376,0 13.326746,0 19.990126,0 0.46513,0 2.58007,0.27566 2.85573,0 0.22254,-0.22254 -0.80343,-1.28957 -0.95191,-1.58652"
       id="path47" />
    <path
       style="fill:#2b0000;fill-opacity:0;stroke:#000000;stroke-opacity:1"
       d="m 114.22929,336.3418 c -0.0424,-0.14843 -0.8511,-2.88547 -0.95191,-3.49034 -0.13023,-0.78136 0.35665,-2.14244 0,-2.85573 -0.5089,-1.01779 -0.63461,-2.89691 -0.63461,-4.12495 0,-0.21154 -0.14958,-0.48503 0,-0.63461 0.27587,-0.27587 2.76407,0 3.17304,0 -0.63461,-0.95191 -1.64657,-1.74097 -1.90382,-2.85573 -0.11892,-0.5153 0.64453,-0.83888 0.95191,-1.26921 0.22165,-0.31032 0.46406,-0.61082 0.6346,-0.95192 0.0473,-0.0946 -0.0748,-0.24251 0,-0.3173 0.64387,-0.64386 1.66843,-1.07478 2.22113,-1.90382 0.27115,-0.40673 0,-2.30654 0,-2.85573"
       id="path48" />
    <path
       style="fill:#2b0000;fill-opacity:0;stroke:#000000;stroke-opacity:1"
       d="m 117.71963,311.90942 c 0,-1.26921 0.26594,-2.5666 0,-3.80764 -0.3787,-1.76724 -1.38448,-3.34572 -1.90382,-5.07686 -0.12157,-0.40523 0.0918,-0.85622 0,-1.26921 -0.12356,-0.55602 -0.49647,-1.03395 -0.63461,-1.58652 -0.2578,-1.03122 0.0188,-2.16463 -0.3173,-3.17304 -0.1206,-0.36178 -0.46406,-0.61082 -0.63461,-0.95191 -0.52143,-1.04285 -0.3173,-2.35515 -0.3173,-3.49034 0,-0.17671 -8.3e-4,-4.12467 0,-4.12494 2.55411,-0.85137 3.32682,1.90382 5.07685,1.90382 1e-5,5.28839 0,10.57678 0,15.86518 0,0.82211 0.1295,3.49034 -0.6346,3.49034"
       id="path49" />
    <path
       style="fill:#2b0000;fill-opacity:0;stroke:#000000;stroke-opacity:1"
       d="m 118.35424,289.69817 c 0.50441,-2.8244 0.16384,-5.7426 0.6346,-8.5672 0.16496,-0.98975 0.75513,-1.87181 0.95191,-2.85573 0.37198,-1.8599 0,-6.55781 0,-8.5672 0,-0.42307 0.23468,-0.91719 0,-1.26921 -0.16594,-0.24891 -0.50082,-0.36703 -0.6346,-0.63461 -0.22608,-0.45215 0.17885,-1.45669 0,-1.90382 -0.3167,-0.79174 -0.95252,-1.42939 -1.26922,-2.22112 -0.33125,-0.82814 0,-4.18016 0,-5.07686 0,-0.3173 -0.2838,-0.81001 0,-0.95191 0.79153,-0.39577 2.53843,0.40905 2.53843,1.26921 -0.49816,-1.35644 -1.53656,-6.49595 -0.95191,-8.24989 0.0473,-0.1419 0.21154,-0.21154 0.3173,-0.3173 0.10577,-0.21154 0.25995,-0.40517 0.31731,-0.63461 0.19801,-0.79206 -0.15985,-1.73918 0,-2.53843 0.0791,-0.39577 0.84511,-1.37293 0.95191,-1.58652 0.70089,-0.41208 0.11701,-1.08578 0.3173,-1.58652 0.14163,-0.35407 0.46406,-0.61081 0.63461,-0.95191 0.39442,-0.78883 -0.0716,-2.07787 0.3173,-2.85573 0.43308,-0.86616 0.63461,-2.12719 0.63461,-3.17303 -1.22215,-0.91259 0.4583,-2.42097 0,-3.49034 -0.20832,-0.48608 -0.67983,-0.81574 -0.95191,-1.26922 -0.62525,-1.04208 -0.89999,-3.33457 -1.26922,-4.44225 -0.12059,-0.36178 -0.54211,-0.58194 -0.6346,-0.95191 -0.0342,-0.13688 -0.23147,-2.72697 -0.31731,-2.85573 -0.16594,-0.24891 -0.5235,-0.35685 -0.6346,-0.63461 -0.33235,-0.83086 0,-3.39952 0,-4.44225 -1.20181,-1.24845 0.56633,-3.34372 0,-4.75955 -0.14163,-0.35408 -0.46406,-0.61082 -0.63461,-0.95191 -0.1892,-0.37841 0.083,-0.85436 0,-1.26922 -0.0464,-0.23191 -0.25994,-0.40516 -0.3173,-0.6346 -0.14646,-0.58584 0.19039,-1.33265 0,-1.90383 -0.76612,-2.29836 0.0915,0.50027 -0.63461,-0.95191 -0.29615,-0.5923 0.29615,-1.62882 0,-2.22112 -0.78484,-1.56967 -0.3173,-4.188 -0.3173,-6.02877 0,-0.54668 0.21635,-1.16826 0.6346,-1.58652 0.0748,-0.0748 3.98963,0 4.44225,0 0.10577,0 -0.21153,0 -0.3173,0 -0.42307,0 -0.84614,0 -1.26922,0"
       id="path50" />
    <path
       style="fill:#2b0000;fill-opacity:0;stroke:#000000;stroke-opacity:1"
       d="m 118.98884,208.46845 c 0.52505,-1.30295 -0.44375,-3.11098 0,-4.44225 0.0106,-0.0319 0.79242,0.002 0.95191,-0.3173 0.16923,-0.33846 -0.16922,-0.93076 0,-1.26921 0.0669,-0.13379 0.21154,-0.21154 0.31731,-0.31731 0.21153,-0.10577 0.52884,-0.10577 0.6346,-0.3173 0.14191,-0.28381 -0.10034,-0.65089 0,-0.95191 0.48703,-1.46109 1.26922,-1.65735 1.26922,-3.49034 0.94842,-2.07597 1.90382,-1.20681 1.90382,-2.53843 0.63461,0.10577 1.31248,0.0639 1.90382,0.3173 0.21738,0.0932 0.1754,0.44541 0.31731,0.63461 0.44873,0.59831 0.9882,1.13778 1.58651,1.58652 0.0846,0.0635 0.24252,-0.0748 0.31731,0 0.26025,0.26025 -0.0813,0.87061 0.3173,1.26921 0.10577,1.16345 0.23959,2.32468 0.3173,3.49034 0.0367,0.54991 0.12699,5.52099 0,5.71147 -0.0417,0.0626 -1.26834,1.90338 -1.26921,1.90382 -0.92972,0.46486 -2.98135,1.4609 -1.58652,2.85573"
       id="path51" />
    <path
       style="fill:#2b0000;fill-opacity:0;stroke:#000000;stroke-opacity:1"
       d="m 128.19065,214.49722 c 0,3.38457 0,6.76914 0,10.15372 0,0.51262 0.25361,1.90382 -0.31731,1.90382"
       id="path52" />
    <path
       style="fill:#2b0000;fill-opacity:0;stroke:#000000;stroke-opacity:1"
       d="m 127.55604,211.95879 c 1.73172,2.16466 1.26921,0.90928 1.26921,3.80765"
       id="path53" />
    <path
       style="fill:#2b0000;fill-opacity:0;stroke:#000000;stroke-opacity:1"
       d="m 127.87334,227.50667 c 0.01,2.46238 0.16364,4.89326 -0.3173,7.29798 -0.10873,0.54367 0.24496,1.4139 0,1.90382 -0.13379,0.26758 -0.5235,0.35685 -0.63461,0.63461 -0.33104,0.82761 0.28285,2.0072 0,2.85573 -0.43482,1.30446 -0.66227,3.43501 0,4.75956 0.24091,0.4818 1.81588,2.08604 2.22113,2.22112 1.17628,0.39209 0.20778,-0.42683 0.95191,0.3173"
       id="path54" />
    <path
       style="fill:#2b0000;fill-opacity:0;stroke:#000000;stroke-opacity:1"
       d="m 127.87334,233.53544 c 0.31731,1.90382 0.53322,3.82734 0.95191,5.71146 0.21767,0.97951 0.6879,1.88769 0.95192,2.85573 0.0556,0.20409 -0.0786,0.4382 0,0.63461 0.14163,0.35408 0.51401,0.59013 0.6346,0.95191 0.34476,1.03428 0,4.55859 0,5.71147 0,1.00786 0.3358,4.06947 0,5.07685 -0.15688,0.47066 -0.6346,0.37179 -0.6346,0.95191 -0.27309,2.53708 -0.10756,4.11958 0.6346,6.34608 0.25255,0.75765 -0.11287,2.31267 0.31731,3.17303 0.13378,0.26758 0.54,0.3508 0.6346,0.63461 0.27818,0.83454 0,2.27281 0,3.17303 -0.8751,3.8451 -0.6346,7.81564 -0.6346,11.74024 -1.69445,2.39311 -1.26922,4.87535 -1.26922,7.61528 0.42307,0.63461 0.81159,1.29366 1.26922,1.90382 0.17949,0.23933 0.5235,0.35685 0.6346,0.63461 0.28234,0.70584 -0.3387,1.86103 0,2.53843 0.59961,1.19922 0.63461,0.22073 0.63461,1.90382 -0.2937,2.26759 -1.57405,3.7827 -2.53843,5.71147 -0.0967,0.19339 -0.39676,4.99688 -0.3173,5.39416 4.3e-4,0.002 1.26666,1.90127 1.26921,1.90382 0.65651,0.65651 -0.0257,-1.00324 0.63461,0.3173 0.17887,0.35774 0,1.15643 0,1.58652"
       id="path55" />
    <path
       style="fill:#2b0000;fill-opacity:0;stroke:#000000;stroke-opacity:1"
       d="m 131.99829,312.86133 c 0.64507,0.55693 -0.86085,10.87939 -0.3173,11.42293 0.87852,0.87852 2.2603,1.34757 2.85573,2.53843 -0.59254,0.66148 0.57669,4.84643 0,5.71146 -0.87794,1.31691 -1.26468,1.26015 -1.90382,2.53843 0.74037,0.42307 1.4061,1.01844 2.22112,1.26922 1.21372,0.37345 2.85617,-0.21147 4.12495,0 0.23329,0.0389 0.40516,0.25994 0.63461,0.3173 1.49842,0.37461 3.25061,-0.33532 4.75955,0 0.75167,0.16704 1.46946,0.46757 2.22113,0.63461 0.20649,0.0459 0.42307,0 0.6346,0 0.84615,0.10577 1.70754,0.12556 2.53843,0.3173 0.55499,0.12808 1.03395,0.49647 1.58652,0.63461 0.41044,0.10261 0.89081,-0.1892 1.26921,0 0.47301,0.2365 0.75617,0.82365 1.26922,0.95191 0.46825,0.11706 2.67113,0.25095 3.17303,0 0.0946,-0.0473 0,-0.21154 0,-0.3173 0,-0.31731 0.077,-0.64409 0,-0.95191 -0.0212,-0.0846 -1.63188,-0.61193 -0.95191,-0.95192 0.18921,-0.0946 0.42307,0 0.63461,0 0.21154,-0.10576 0.42307,-0.21153 0.63461,-0.3173 1.80138,-4.5348 0.64696,-3.13596 -0.63461,-6.98068 -0.40239,-1.20715 0,-4.71755 0,-6.02877 0.3173,-0.84614 0.51918,-1.74509 0.95191,-2.53842 0.21488,-0.39395 0.72928,-0.5623 0.95191,-0.95192 0.78089,-1.36655 0.63004,-3.48424 1.58652,-4.75955 0.1419,-0.1892 0.45292,-0.1659 0.63461,-0.3173 0.45963,-0.38303 0.91022,-0.79057 1.26921,-1.26922 0.28381,-0.3784 0.45894,-0.83003 0.63461,-1.26921 0.0393,-0.0982 -0.0748,-0.24252 0,-0.3173 0.0748,-0.0748 0.27,0.0946 0.3173,0 0.0812,-0.16247 0.0875,-1.78714 0,-1.90383 -0.26924,-0.35898 -0.703,-0.57854 -0.95191,-0.95191 -0.29233,-0.4385 -0.11312,-1.00847 -0.63461,-1.26921 -0.7627,-0.38135 -0.88786,1.45842 -1.26921,2.22112 -0.0473,0.0946 -0.27,-0.0946 -0.3173,0 -0.12625,0.2525 -0.49149,2.10907 -0.63461,2.53843 -0.2078,0.62341 -0.95191,0.0856 -0.95191,0.95191"
       id="path56" />
    <path
       style="fill:#2b0000;fill-opacity:0;stroke:#000000;stroke-opacity:1"
       d="m 160.55561,306.19796 c 0.9894,-1.97879 0.83279,-1.38729 1.26922,-4.44225 0.0598,-0.41882 -0.14855,-0.87308 0,-1.26922 0.18568,-0.49517 0.68953,-0.81005 0.95191,-1.26921 0.37451,-0.6554 0.33462,-1.30385 0.6346,-1.90382 0.28325,-0.56649 -0.34867,-1.69812 0,-2.22113 0.18553,-0.27829 0.76639,-0.039 0.95192,-0.3173 1.69228,-2.53843 -1.16345,1.16344 0.95191,-0.95191 0.52159,-0.52159 0.3173,-2.17809 0.3173,-2.85573"
       id="path57" />
    <path
       style="fill:#2b0000;fill-opacity:0;stroke:#000000;stroke-opacity:1"
       d="m 163.72865,293.82312 c 0,-4.23072 0,-8.46143 0,-12.69215 0,-0.82593 -0.34876,-2.79281 0,-3.49034 0.13379,-0.26757 0.46866,-0.38569 0.63461,-0.6346 0.23467,-0.35202 0,-0.84615 0,-1.26922 0,-1.21948 0.33319,-5.02917 0,-6.02877 -0.18181,-0.5454 -0.92915,-0.61184 -1.26922,-0.95191 0.21154,-1.05768 0.45728,-2.10908 0.63461,-3.17303 0.22691,-1.36147 -0.40744,-7.11772 0,-7.93259 0.17054,-0.34109 0.46406,-0.61082 0.63461,-0.95191 0.39537,-0.79075 -0.0556,-3.37907 0.3173,-4.12495 0.10577,-0.21153 0.46737,-0.15007 0.63461,-0.3173 0.21176,-0.21177 0.14781,-2.19945 0.3173,-2.53843 0.65678,-1.31356 0.51943,-1.24099 0.95191,-2.53843 0.3173,-0.95191 -0.63461,0.63461 0,-0.95191 0.14163,-0.35408 0.46406,-0.61082 0.63461,-0.95191 0.1892,-0.37841 -0.083,-0.85436 0,-1.26922 0.0464,-0.23191 0.25994,-0.40516 0.3173,-0.6346 0.32353,-1.2941 -0.32352,-2.83085 0,-4.12495 0.0363,-0.14511 0.25041,-0.18352 0.31731,-0.3173 0.30868,-0.61737 -0.10312,-2.23707 0,-2.85573 0.0389,-0.23329 0.24251,-0.41024 0.3173,-0.63461 0.19038,-0.57115 -0.19038,-1.33268 0,-1.90382 0.12059,-0.36179 0.54211,-0.58195 0.63461,-0.95191 0.22397,-0.89592 -0.22398,-1.95982 0,-2.85574 0.0363,-0.14511 0.25041,-0.18351 0.3173,-0.3173 0.1419,-0.2838 -0.11784,-0.6573 0,-0.95191 0.14163,-0.35408 0.46406,-0.61082 0.63461,-0.95191 0.32512,-0.65025 0,-2.27227 0,-2.85573 0,-1.95972 0.3173,-3.47658 0.3173,-5.39416 0,-0.82507 -0.27142,-3.26482 0,-3.80765 0.85664,-1.71327 0.3173,-4.97812 0.3173,-6.98068 0,-1.65135 0.37091,-4.86246 0,-6.34607 -0.0363,-0.14511 -0.25041,-0.18351 -0.3173,-0.3173 -0.24586,-0.49172 -0.0876,-1.44447 -0.3173,-1.90382 -0.13379,-0.26758 -0.46867,-0.3857 -0.63461,-0.63461 -0.29617,-0.44425 -0.0928,-1.45486 -0.3173,-1.90382 -0.37717,-0.75433 -1.06431,-1.20755 -1.58652,-1.90382 -1.4609,-1.94787 0.62094,0.60728 -0.31731,-1.26922 -0.13378,-0.26757 -0.50082,-0.36703 -0.6346,-0.6346 -0.1291,-0.25819 -0.18821,-1.32834 -0.31731,-1.58652 -0.27872,-0.55745 -1.00366,-1.05542 -1.26921,-1.58652 -0.19503,-0.39005 -0.12228,-0.87916 -0.3173,-1.26921 -0.13379,-0.26758 -0.45512,-0.39529 -0.63461,-0.63461 -0.55307,-0.73743 -0.46811,-1.70595 -0.63461,-2.53843 -0.14037,-0.70185 -0.95191,-1.24126 -0.95191,-1.90382 3.18798,-0.6856 1.49745,-5.19098 3.80764,-6.34607 0.96647,-2.56181 6.40063,-0.50324 7.93259,-1.26922 0.26758,-0.13379 0.3857,-0.46866 0.63461,-0.63461 1.03385,-0.68923 2.29909,-0.23933 3.17304,0.63461 0,-0.74037 0.0737,-1.48442 0,-2.22112 -0.0333,-0.33281 -0.26232,-0.622 -0.31731,-0.95191 -0.19227,-1.15365 0.37035,-2.69661 0,-3.80765 -0.14958,-0.44873 -0.48503,-0.82048 -0.6346,-1.26921 -0.34699,-1.04096 0.26612,-2.42585 0,-3.49034 -0.52579,-2.10315 -0.31731,-4.44443 -0.31731,-6.66338 0,-1.5447 -0.36215,-4.58015 0,-6.02876 0.0363,-0.14512 0.25041,-0.18352 0.31731,-0.31731 0.0984,-0.19691 0,-1.12807 0,-1.26921 0.33107,-3.76925 -0.31731,-7.41999 -0.31731,-11.10563 0,-0.79272 0.35372,-2.7829 0,-3.49034 -0.69327,-1.38655 -0.63461,-0.47442 -0.63461,-1.26921 -0.52943,2.14394 1.75306,2.31228 2.53843,3.49034 0.29508,0.44261 2.11557,3.52573 2.53843,3.80764 0.39725,0.26484 1.1369,0.59222 1.58652,0.95191 0.97123,0.77699 0.79129,1.08082 1.90382,1.58652 1.03705,0.47139 2.06789,0.99293 3.17304,1.26921 0.20522,0.0513 0.4454,-0.0946 0.6346,0 0.26758,0.13379 0.37809,0.4807 0.63461,0.63461 0.30979,0.18587 1.26546,0.31355 1.58652,0.63461 0.42307,0.42307 -0.6731,0.30447 0.3173,0.63461 0.20068,0.0669 0.43393,-0.0669 0.63461,0 0.7616,0.25386 1.64246,1.00785 2.22113,1.58651 0.37394,0.37395 0.54564,0.93066 0.95191,1.26922 0.58418,0.48682 1.48302,0.42762 1.90382,1.26921 0.0473,0.0946 0,0.21154 0,0.31731 0.10577,0.21153 0.1754,0.4454 0.3173,0.6346 0.34571,0.46094 1.53104,1.62424 1.90382,1.90382 0.0846,0.0635 0.24252,-0.0748 0.31731,0 0.0748,0.0748 -0.0473,0.22271 0,0.31731 0.2365,0.47301 0.6346,0.84614 0.95191,1.26921 0.17949,0.23933 0.50082,0.36704 0.6346,0.63461 0.0473,0.0946 0,0.21154 0,0.3173 0.21154,0.21154 0.46867,0.3857 0.63461,0.63461 0.12213,0.1832 0.50991,2.28904 0.63461,2.53843 0.23616,0.47231 0.98713,0.8461 1.26921,1.26921 0.28205,0.42307 -0.38781,0.31731 0.31731,0.31731 0.33826,1.6599 0.49303,3.28045 0,4.75955 -0.0946,0.28381 -0.54001,0.3508 -0.63461,0.63461 -0.10034,0.30102 0.22437,0.72754 0,0.95191 -0.0748,0.0748 -0.21154,0 -0.3173,0 -0.21154,0.21153 -0.50082,0.36703 -0.63461,0.63461 -0.20027,0.40054 0.23,1.20318 0,1.58651 -0.23087,0.38479 -0.68267,0.59293 -0.95191,0.95191 -0.19038,0.25385 0.1419,0.66811 0,0.95192 -0.0473,0.0946 -0.31731,-0.10577 -0.31731,0 0,0.29695 2.6458,0.29106 2.85574,0.3173 0.56571,0.0707 1.86192,0.97286 2.53842,0.63461 1.61293,-0.80647 0.55404,-0.7102 0.95192,-1.90383 0.0946,-0.2838 0.46866,-0.38569 0.6346,-0.6346 0.13119,-0.19679 0.12052,-0.50342 0.31731,-0.63461 0.176,-0.11734 0.43392,0.0669 0.6346,0 0.28381,-0.0946 0.36704,-0.50082 0.63461,-0.63461 0.7174,-0.3587 2.11565,0.0527 2.85573,-0.3173 0.45283,-0.22642 0.38454,-0.63461 0.95191,-0.63461 0.3173,0.95191 0.57926,1.9241 0.95191,2.85573 0.24231,0.60576 1.19707,1.06725 1.58652,1.58652 0.16359,0.21812 1.0865,1.22109 1.26922,1.58652 0.0473,0.0946 -0.10034,0.28386 0,0.3173 0.30102,0.10034 0.64408,-0.077 0.95191,0 0.43533,0.10884 0.57854,0.703 0.95191,0.95191 0.3593,0.23954 2.22112,0.90067 2.22112,1.26922 -0.69622,0.31324 0.47093,5.40421 0,6.34607 -0.0473,0.0946 -0.21153,0 -0.3173,0 -0.10577,0.10577 -0.27,0.1754 -0.3173,0.3173 -0.19801,0.59402 -0.0977,1.24511 -0.31731,1.90383 0.80371,0.34134 -0.0755,3.41481 0.63461,4.12494 0.29916,0.29916 0.85877,-0.10261 1.26921,0 0.30022,0.0751 0.92141,1.25397 0.95191,1.26922 0.28381,0.1419 0.6879,-0.17601 0.95192,0 0.37337,0.24891 0.55055,0.75123 0.95191,0.95191 0.67691,0.33845 1.86151,-0.33846 2.53842,0 0.62519,0.31259 1.1594,0.3173 1.90383,0.3173 0.74037,-0.42307 1.57368,-0.71427 2.22112,-1.26921 0.16061,-0.13767 -0.12692,-0.46538 0,-0.63461 0.22881,-0.30508 0.75571,-0.3076 0.95191,-0.63461 0.16325,-0.27208 -0.077,-0.64408 0,-0.95191 0.16056,-0.64223 0.88279,-0.5058 1.26922,-0.63461 0.9904,-0.33013 -0.10577,-0.21153 0.3173,-0.6346 0.31729,-0.31729 2.72096,0 3.17304,0 0.53623,-4.08605 0.3173,-8.25245 0.3173,-12.37484 -2.74911,-1.84176 -0.59824,-2.13022 -1.26921,-3.80765 -0.14164,-0.35407 -0.46407,-0.61082 -0.63461,-0.95191 -0.0946,-0.1892 0.11734,-0.4586 0,-0.6346 -0.44718,-0.67076 -1.13935,-1.23306 -1.58652,-1.90382 -0.39657,-0.59486 0.17352,-2.16165 0,-2.85574 -0.10459,-0.41834 -0.73073,-0.93744 -0.95191,-1.26921 -0.21666,-0.32499 -0.12339,-1.39261 -0.3173,-1.58652 -0.16724,-0.16723 -0.50342,-0.12052 -0.63461,-0.3173 -0.11734,-0.17601 0.0669,-0.43393 0,-0.63461 -0.1276,-0.38279 -0.8016,-0.57612 -0.95191,-0.95191 -0.16196,-0.4049 -0.12228,-0.87916 -0.31731,-1.26922 -0.0473,-0.0946 -0.24251,0.0748 -0.3173,0 -0.0748,-0.0748 0.0587,-0.22929 0,-0.3173 -0.71455,-1.07182 -2.07113,-2.44421 -2.85573,-3.49034 -0.38217,-0.50956 -0.73449,-1.6864 -1.26922,-2.22112 -0.051,-0.051 -1.52088,-1.2364 -1.58651,-1.26922 -0.85733,-0.42866 -0.14266,0.49196 -1.26922,-0.6346 0.39299,-0.003 -0.32674,-4.90405 0,-5.39417 0.24892,-0.37337 0.63461,-0.6346 0.95191,-0.95191"
       id="path58" />
    <path
       style="fill:#2b0000;fill-opacity:0;stroke:#000000;stroke-opacity:1"
       d="m 222.11251,143.42122 c 0.22313,-1.33029 -1.1276,-5.62841 -1.90382,-6.66338 -0.14191,-0.1892 -0.54678,-0.0977 -0.63461,-0.3173 -0.22865,-0.57161 -0.0158,-1.8244 -0.63461,-2.85573 -1.22261,-2.03769 -4.06552,-3.14332 -6.02877,-4.12495 -0.76379,-0.38189 -2.3062,-2.0988 -2.85573,-2.53843 -0.25338,-0.20271 -1.58469,-0.95009 -1.90382,-1.26921 -0.29749,-0.29749 -0.52972,-0.98776 -0.95191,-1.26922 -0.28597,-0.62995 -0.87916,-0.12227 -1.26922,-0.3173 -2.07398,-1.03699 -0.61553,-0.61553 -1.90382,-1.90382 -0.0748,-0.0748 -0.2266,0.0544 -0.3173,0 -0.59244,-0.35547 -1.77521,-1.90382 -2.53843,-1.90382 -1.42428,-1.14375 -3.13742,-2.18552 -4.44225,-3.49034 -3.10616,-3.10616 0.73703,0.47093 -1.26921,-2.53843 -0.21154,-0.3173 -0.74038,-0.3173 -0.95191,-0.63461 -0.16196,-0.24293 -0.58566,-2.75783 -0.63461,-2.85573 -0.10577,-0.21154 -0.46737,-0.15007 -0.63461,-0.3173 -0.2365,-0.23651 -0.13177,-0.67362 -0.3173,-0.95191 -2.16002,-3.24004 0.004,0.0842 -1.58652,-1.90383 -0.5781,-0.72262 -0.95254,-1.90445 -1.58652,-2.53842 -0.0748,-0.0748 -0.2227,0.0473 -0.3173,0 -0.0888,-0.0444 -2.07075,-2.33792 -2.22113,-2.53843 -0.79723,-1.06298 -1.02621,-2.43721 -1.90382,-3.490342 -0.1514,-0.181688 -0.46737,-0.15007 -0.63461,-0.317304 -0.0737,-0.07371 -2.50472,-3.422938 -2.53842,-3.490339 -0.36725,-0.734498 -0.69856,-1.825102 -1.26922,-2.538429 -0.28032,-0.350403 -0.68267,-0.592923 -0.95191,-0.951911 -0.12692,-0.169228 0.12692,-0.465378 0,-0.634607 -0.44873,-0.598313 -1.05768,-1.057678 -1.58652,-1.586518 -3.07466,-4.060059 -1.16929,-1.286758 -1.90382,-3.490339 -0.13432,-0.402959 -1.24909,-1.361569 -1.58652,-1.586518 -0.088,-0.05867 -0.24251,0.07479 -0.3173,0 -0.36521,-0.365211 -0.51244,-1.78165 -1.26921,-2.538429 -0.5652,-5.987914 -0.31731,-12.061334 -0.31731,-18.086304 -1.05768,0.528839 -2.0594,1.188793 -3.17303,1.586518 -0.95602,0.341435 -6.31755,0 -7.93259,0"
       id="path59" />
    <path
       style="fill:#2b0000;fill-opacity:0;stroke:#000000;stroke-opacity:1"
       d="m 151.98842,35.855305 c 0.54832,0.649032 2.68974,-0.4003 3.49034,0 0.26757,0.133787 0.37808,0.480692 0.6346,0.634607 0.22463,0.967478 0.87916,0.122277 1.26922,0.317304 0.48597,0.242987 0.24813,0.56544 0.6346,0.95191 0.30837,0.308364 0.92034,0.05565 1.26922,0.317304 0.3784,0.283805 0.37223,0.875648 0.63461,1.269214 0.31815,0.477235 1.01259,0.438666 1.26921,0.951911 0.0946,0.189203 -0.0946,0.445404 0,0.634607 0.19038,0.380764 0.76153,0.571147 0.95191,0.951911 0.36173,0.723467 -0.13146,2.384256 0,3.173036 0.19176,1.150566 1.08394,1.533279 1.58652,2.538428 0.1419,0.283805 -0.12499,0.660263 0,0.951911 0.24294,0.566862 0.75688,1.001439 0.95191,1.586518 0.38791,1.163727 0,3.187084 0,4.44225 0,3.067268 0,6.134536 0,9.201804 0,0.53015 0.17699,3.173036 -0.3173,3.173036 -0.51799,0 -1.45018,-1.132876 -1.58652,-1.269214"
       id="path60" />
    <path
       style="fill:#2b0000;fill-opacity:0;stroke:#000000;stroke-opacity:1"
       d="m 150.4019,35.220698 c -1.29351,-0.929095 -3.08803,0.134104 -4.44225,-0.317304 -0.43278,-0.144259 -1.63877,-1.180864 -1.90382,-1.269214 -1.33461,-0.444868 -1.82298,-0.256674 -3.17304,-1.269215 -0.006,-0.0045 -0.57498,-1.080748 -0.95191,-1.269214 -0.7815,-0.390752 0.28644,0.921048 -0.95191,-0.317304 -0.0748,-0.07479 0.0946,-0.270002 0,-0.317303 -0.39005,-0.195026 -0.86431,-0.155343 -1.26922,-0.317304 -1.20918,-0.483674 0.96226,-0.251774 -0.95191,-0.634607 -0.41485,-0.08297 -0.85877,0.10261 -1.26921,0 -2.64108,-0.660271 0.38302,0.02191 -1.58652,-0.634607 -0.28557,-0.09519 -0.66634,0.09519 -0.95191,0 -0.54035,-0.180116 -1.03885,-0.478132 -1.58652,-0.634607 -0.52048,-0.14871 -1.43195,-0.08137 -1.90382,-0.317304 -1.41879,-0.709396 -0.0846,-0.634607 -0.95191,-0.634607 -3.96166,0.574458 -10.51377,-1.089184 -13.96136,0.634607 -0.1892,0.0946 -0.43392,-0.06689 -0.6346,0 -1.55567,0.518555 -2.19414,2.207629 -3.49034,2.855732"
       id="path61" />
    <path
       style="fill:#2b0000;fill-opacity:0;stroke:#000000;stroke-opacity:1"
       d="m 107.24861,31.413055 c -0.34937,1.332594 -1.57792,0.313007 -2.22112,0.634607 -0.26758,0.133787 -0.3857,0.468665 -0.63461,0.634607 -0.088,0.05867 -0.24252,-0.07479 -0.3173,0 -0.0748,0.07479 0.088,0.258634 0,0.317304 -0.55981,0.373205 -2.51695,1.258471 -3.17304,1.586517 -0.32587,0.162937 -0.971573,-0.198428 -1.269215,0 -0.248914,0.165943 -0.385694,0.468665 -0.634607,0.634608 -0.287138,0.191425 -1.687927,-0.05397 -1.903822,0 -0.145112,0.03628 -0.175401,0.270002 -0.317303,0.317303 -0.301021,0.10034 -0.668106,-0.141902 -0.951911,0 -0.341091,0.170546 -0.61082,0.464062 -0.951911,0.634607 -0.918615,0.459308 -2.36352,0.459699 -3.173036,1.269215 -0.269656,0.269656 -0.364951,0.682254 -0.634607,0.95191 -0.235186,0.235187 -0.875376,-0.07653 -1.269214,0.317304 -0.440615,0.440615 -0.628282,1.266051 -1.269215,1.586518 -0.189203,0.0946 -0.485028,-0.149578 -0.634607,0 -0.165101,0.165101 0,1.000925 0,1.269214"
       id="path62" />
    <path
       style="fill:#2b0000;fill-opacity:0;stroke:#000000;stroke-opacity:1"
       d="m 150.08459,34.268787 c 1.89631,0.698082 3.31442,1.84862 5.07686,2.855732 0.2904,0.165942 0.68434,0.116623 0.95191,0.317304 0.46641,0.349803 0.71033,1.187312 1.26922,1.586518 0.52884,0.317303 1.05768,0.634607 1.58651,0.95191 0.10577,0 0.22271,-0.0473 0.31731,0 1.05986,0.529931 2.48521,2.378783 2.85573,3.49034"
       id="path63" />
    <path
       style="fill:#2b0000;fill-opacity:0;stroke:#000000;stroke-opacity:1"
       d="m 85.989271,270.34265 c 0.184938,0.38019 2.538428,3.63268 2.538428,4.12495 0,0.14958 -0.221545,-0.2024 -0.317303,-0.3173 -1.526237,-1.83149 -1.392318,-1.73563 -2.221125,-3.80765 z"
       id="path64" />
    <path
       style="fill:#2b0000;fill-opacity:0;stroke:#000000;stroke-opacity:1"
       d="m 84.402753,269.39074 c 0.961758,0.45343 0.02958,1.32838 0.317303,1.90382 0.0473,0.0946 0.222702,-0.0473 0.317304,0 0.445714,0.22286 0.753421,0.87224 0.951911,1.26922"
       id="path65" />
    <path
       style="fill:#2b0000;fill-opacity:0;stroke:#000000;stroke-opacity:1"
       d="m 106.93131,74.566342 c 0.52884,0 1.07347,-0.128263 1.58652,0 0.34735,0.08684 2.73801,1.412508 3.17303,1.586518 0.84436,0.337744 2.00409,0.07398 2.85573,0.317303 0.68222,0.194918 1.2155,0.779829 1.90382,0.951911 0.78631,0.196576 1.77384,-0.254866 2.53843,0 0.44874,0.149578 0.82048,0.485029 1.26922,0.634607 1.06311,0.354371 2.98176,0 4.12494,0 2.9615,0 5.923,0 8.8845,0 1.24464,0 6.98447,0.315409 7.61529,0 0.40136,-0.20068 0.60151,-0.671588 0.95191,-0.95191 0.64213,-0.5137 0.82268,-0.176305 1.58652,-0.634608 0.25652,-0.153915 0.36703,-0.50082 0.63461,-0.634607 0.473,-0.236504 1.0955,0.196406 1.58651,0 0.80128,-0.320511 1.58975,-1.586518 2.53843,-1.586518"
       id="path66" />
    <path
       style="fill:#2b0000;fill-opacity:0;stroke:#000000;stroke-opacity:1"
       d="m 105.34479,74.249038 c 0.3173,0.52884 0.55709,1.112735 0.95191,1.586518 0.15141,0.181688 0.46737,0.15007 0.63461,0.317304 0.13348,0.133482 -0.0581,1.152995 0,1.269214 0.0188,0.03754 2.63757,1.19272 3.17303,1.269214 0.41882,0.05983 0.85878,-0.102609 1.26922,0 0.10261,0.02565 0,0.211536 0,0.317304 0.21153,0.105768 0.40269,0.270921 0.6346,0.317304 0.70465,0.140929 1.52465,-0.174119 2.22113,0 1.76857,0.442143 3.59225,0.377191 5.39416,0.634607 4.34792,0.621131 8.90977,0.317303 13.32675,0.317303 2.85573,0 5.71147,0 8.5672,0 0.79644,0 2.10365,0.250693 2.85573,0 0.2838,-0.0946 0.36703,-0.50082 0.63461,-0.634607 0.29915,-0.149578 0.65275,-0.167725 0.95191,-0.317303 1.2196,-0.609803 1.4887,-2.196475 2.22112,-3.173036 0.1795,-0.239326 0.46867,-0.385694 0.63461,-0.634607 0.17601,-0.264013 0,-0.634608 0,-0.951911"
       id="path67" />
    <path
       style="fill:#2b0000;fill-opacity:0;stroke:#000000;stroke-opacity:1"
       d="m 104.39288,107.56591 c 1.031,2.31626 2.57118,4.10244 2.85573,6.66338 0.0677,0.60922 -0.11282,2.08715 0,2.53843 0.0925,0.36996 0.49298,0.59783 0.63461,0.95191 0.17391,0.43479 0,1.43875 0,1.90382"
       id="path68" />
    <path
       style="fill:#2b0000;fill-opacity:0;stroke:#000000;stroke-opacity:1"
       d="m 140.88279,107.88322 c 0,3.80764 0,7.61528 0,11.42293"
       id="path69" />
    <path
       style="fill:#2b0000;fill-opacity:0;stroke:#000000;stroke-opacity:1"
       d="m 105.34479,109.78704 c 4.01918,0 8.03836,0 12.05754,0 2.36262,0 6.28041,-0.38113 8.56719,0 0.58724,-0.23568 0.58195,0.54212 0.95191,0.63461 0.71827,0.17956 1.48293,-0.0568 2.22113,0 1.1648,0.0896 2.33383,0.15209 3.49034,0.3173 1.27379,0.18197 2.5273,0.50657 3.80764,0.63461 1.73957,0.17395 3.63034,0 5.39416,0"
       id="path70" />
    <path
       style="fill:#ff0000;fill-opacity:1;stroke:#000000;stroke-opacity:1"
       d="m 108.83513,115.4985 c 9.88195,1.59199 19.86441,1.26922 29.82654,1.26922"
       id="path71" />
  </g>
</svg>
